<svg color="#00DB1A" xmlns="http://www.w3.org/2000/svg" viewBox="0 0 73.89 90.78" height="100%" fill="currentColor"><g id="Layer_2" data-name="Layer 2"><g id="Logo"><g id="Icon"><path d="M28.93,17.12H64.11a30.11,30.11,0,0,0-54.33,0H28.93Z"></path><path d="M63,74.92c-2.69-1-3.5-3.55-3.73-5.47V50.22H49.87a9.54,9.54,0,0,1-9-6.39L37,32.62,33,43.83a9.54,9.54,0,0,1-9,6.39H14.64V69.45c-.23,1.92-1,4.5-3.73,5.47a4,4,0,0,0,1.39,7.84,4.22,4.22,0,0,0,1.38-.24c7.23-2.64,9.1-9.66,9.12-14.34V61.31s.05-4.59,4.08-2.86v19c-.22,1.92-1,4.49-3.72,5.47a4,4,0,0,0,1.38,7.84,4.13,4.13,0,0,0,1.38-.24c7.23-2.63,9.1-9.65,9.13-14.32V60.12c.63,0,1.26.07,1.9.07s1.27,0,1.89-.07v16.1c0,4.67,1.9,11.69,9.13,14.32a4.13,4.13,0,0,0,1.38.24,4,4,0,0,0,1.38-7.84C48,82,47.23,79.39,47,77.47v-19c4-1.73,4.08,2.86,4.08,2.86v6.87c0,4.68,1.89,11.7,9.13,14.34a4.12,4.12,0,0,0,1.37.24A4,4,0,0,0,63,74.92Z"></path><path d="M68.49,21.27H5.4A5.39,5.39,0,0,0,.58,29.08l7,14A5.45,5.45,0,0,0,11.38,46h0l.47.07h.09l.49,0H24a5.4,5.4,0,0,0,5.09-3.61L33.68,29.4c.28-.76,1.46-3.66,3.27-3.66s3,2.9,3.26,3.66l4.57,13.06a5.4,5.4,0,0,0,5.09,3.61H61.46l.49,0H62l.47-.07a5.43,5.43,0,0,0,3.77-2.87l7-14A5.39,5.39,0,0,0,68.49,21.27Z"></path></g></g></g></svg>