<svg width="1596" height="664" viewBox="0 0 1596 664" fill="none" xmlns="http://www.w3.org/2000/svg">
<g clip-path="url(#clip0_4495_21825)">
<path d="M280.13 446.193C297.507 446.172 314.166 439.261 326.453 426.973C338.74 414.686 345.653 398.026 345.673 380.649V378.537C345.755 362.746 340.051 347.471 329.641 335.597C314.956 319.013 306.854 297.625 306.866 275.475C306.833 263.434 309.213 251.508 313.867 240.403C318.52 229.297 325.352 219.238 333.959 210.817C342.528 202.351 352.705 195.686 363.889 191.214C375.074 186.742 387.04 184.555 399.083 184.78C422.368 185.162 444.603 194.536 461.132 210.941C477.798 227.207 487.519 249.294 488.257 272.57C489.021 295.637 480.94 318.123 465.668 335.426C455.15 347.504 449.4 363.003 449.496 379.018V380.571C449.496 397.962 456.399 414.641 468.688 426.945C480.978 439.249 497.649 446.172 515.039 446.193C532.416 446.172 549.076 439.261 561.363 426.973C573.65 414.686 580.562 398.026 580.583 380.649V152H547.959V380.649C547.951 389.378 544.48 397.746 538.308 403.918C532.136 410.089 523.768 413.561 515.039 413.569C506.311 413.561 497.943 410.089 491.771 403.918C485.599 397.746 482.128 389.378 482.12 380.649V379.096C482.03 371.025 484.885 363.199 490.152 357.083C510.91 333.559 521.897 302.994 520.865 271.638C519.886 239.966 506.686 209.902 484.031 187.747C461.533 165.449 431.284 152.712 399.612 152.202C383.234 151.879 366.958 154.847 351.747 160.928C336.537 167.01 322.701 176.082 311.06 187.607C299.356 199.055 290.066 212.733 283.739 227.833C277.412 242.934 274.177 259.15 274.226 275.522C274.208 305.647 285.228 334.734 305.203 357.284C310.31 363.195 313.073 370.773 312.971 378.583V380.696C312.963 389.424 309.492 397.793 303.32 403.965C297.149 410.136 288.78 413.607 280.052 413.615C271.324 413.607 262.955 410.136 256.783 403.965C250.612 397.793 247.141 389.424 247.133 380.696V152.047H214.508V380.696C214.537 398.079 221.464 414.741 233.767 427.021C246.071 439.302 262.746 446.197 280.13 446.193Z" fill="black"/>
<path d="M614.08 275.49V380.292C614.051 406.562 603.602 431.747 585.027 450.323C566.451 468.898 541.265 479.347 514.995 479.376C494.567 479.351 474.645 473.022 457.948 461.252C441.252 449.483 428.595 432.846 421.705 413.614H373.546C366.654 432.847 353.994 449.484 337.294 461.254C320.595 473.023 300.67 479.352 280.24 479.376C253.972 479.343 228.789 468.893 210.214 450.318C191.639 431.743 181.189 406.56 181.156 380.292V275.49H148.532V380.292C148.573 415.21 162.463 448.687 187.154 473.379C211.845 498.07 245.322 511.959 280.24 512C304.565 511.98 328.41 505.228 349.133 492.491C369.857 479.755 386.651 461.531 397.657 439.839C408.665 461.529 425.46 479.751 446.183 492.487C466.906 505.223 490.749 511.976 515.073 512C549.993 511.963 583.472 498.075 608.164 473.383C632.856 448.691 646.745 415.212 646.782 380.292V275.49H614.08Z" fill="black"/>
</g>
<g clip-path="url(#clip1_4495_21825)">
<g clip-path="url(#clip2_4495_21825)">
<path d="M1006.33 266.958C994.403 266.976 982.603 269.389 971.629 274.052C960.655 278.716 950.73 285.535 942.444 294.106C924.604 312.269 914.784 337.168 914.784 364.213C914.784 387.715 924.642 411.425 941.836 429.278C959.637 447.777 982.899 457.965 1007.31 457.965C1046.2 457.965 1080.43 433.777 1094.55 396.338L1095.21 394.593H1058.98L1058.62 395.265C1053.73 404.226 1046.5 411.695 1037.7 416.88C1028.9 422.06 1018.85 424.742 1008.63 424.637C981.734 424.637 959.469 406.538 951.448 378.407H1099.48L1099.63 377.295C1100.42 371.669 1100.74 365.988 1100.6 360.309C1100.5 308.003 1059.12 266.958 1006.33 266.958ZM951.138 350.057C954.515 319.276 982.679 300.285 1007.31 300.285C1036.3 300.285 1060.97 322.029 1064.11 350.057H951.138Z" fill="black"/>
<path d="M1216.58 266.958C1204.66 266.975 1192.85 269.387 1181.88 274.051C1170.9 278.714 1160.97 285.534 1152.69 294.106C1134.86 312.269 1125.03 337.168 1125.03 364.213C1125.03 387.715 1134.88 411.425 1152.08 429.278C1169.89 447.777 1193.14 457.965 1217.55 457.965C1256.44 457.965 1290.69 433.777 1304.79 396.338L1305.45 394.593H1269.22L1268.86 395.265C1263.98 404.228 1256.75 411.698 1247.96 416.88C1239.15 422.062 1229.1 424.744 1218.89 424.637C1191.98 424.637 1169.72 406.538 1161.69 378.407H1309.69L1309.85 377.295C1310.63 371.669 1310.96 365.988 1310.82 360.309C1310.71 308.003 1269.33 266.958 1216.58 266.958ZM1161.38 350.057C1164.77 319.276 1192.92 300.285 1217.55 300.285C1246.55 300.285 1271.22 322.029 1274.35 350.057H1161.38Z" fill="black"/>
<path d="M882.378 275.217C877.629 271.942 871.989 270.205 866.219 270.239H735.385V303.994H851.755L735.902 405.231C731.53 409.005 728.427 414.033 727.015 419.632C725.605 425.229 725.953 431.123 728.011 436.516C730.01 441.929 733.623 446.599 738.361 449.896C743.11 453.181 748.757 454.923 754.532 454.886H885.716V421.132H768.983L884.849 319.83C889.219 316.059 892.322 311.035 893.737 305.441C895.148 299.844 894.796 293.948 892.728 288.558C890.726 283.157 887.114 278.5 882.378 275.217V275.217Z" fill="black"/>
<path d="M1413.33 419.645C1408.32 419.632 1403.52 417.635 1399.98 414.093C1396.44 410.551 1394.45 405.751 1394.45 400.745V305.08H1432.51V270.175H1394.45V205.95H1359.51V270.175H1336.56V305.08H1359.51V400.745C1359.53 415.01 1365.21 428.686 1375.3 438.772C1385.4 448.859 1399.08 454.533 1413.36 454.55H1455.19V419.645H1413.33Z" fill="black"/>
</g>
</g>
<defs>
<clipPath id="clip0_4495_21825">
<rect width="495" height="360" fill="white" transform="translate(150.158 152)"/>
</clipPath>
<clipPath id="clip1_4495_21825">
<rect width="729" height="360" fill="white" transform="translate(726.16 152)"/>
</clipPath>
<clipPath id="clip2_4495_21825">
<rect width="729" height="252" fill="white" transform="translate(726.16 206.001)"/>
</clipPath>
</defs>
</svg>
